<mxfile host="app.diagrams.net" modified="2020-09-30T00:57:37.865Z" agent="5.0 (Windows NT 10.0; Win64; x64) AppleWebKit/537.36 (KHTML, like Gecko) Chrome/85.0.4183.121 Safari/537.36" etag="rd5smSR6mA_br6p5pKly" version="13.7.3" type="github">
  <diagram id="xIn0u93DGuyH1k4eNiVx" name="Page-1">
    <mxGraphModel dx="1038" dy="548" grid="1" gridSize="10" guides="1" tooltips="1" connect="1" arrows="1" fold="1" page="1" pageScale="1" pageWidth="827" pageHeight="1169" math="0" shadow="0">
      <root>
        <mxCell id="0" />
        <mxCell id="1" parent="0" />
        <mxCell id="sz_v7gkkLkbEUOMnv0yc-12" value="" style="rounded=0;whiteSpace=wrap;html=1;fontSize=16;fontColor=#FF0000;dashed=1;strokeColor=#000099;" vertex="1" parent="1">
          <mxGeometry x="310" y="160" width="420" height="140" as="geometry" />
        </mxCell>
        <mxCell id="sz_v7gkkLkbEUOMnv0yc-6" style="edgeStyle=orthogonalEdgeStyle;rounded=0;orthogonalLoop=1;jettySize=auto;html=1;exitX=0;exitY=0.5;exitDx=0;exitDy=0;fontSize=16;" edge="1" parent="1" source="sz_v7gkkLkbEUOMnv0yc-1" target="sz_v7gkkLkbEUOMnv0yc-3">
          <mxGeometry relative="1" as="geometry" />
        </mxCell>
        <mxCell id="sz_v7gkkLkbEUOMnv0yc-1" value="Server层" style="rounded=0;whiteSpace=wrap;html=1;fontSize=16;fillColor=#d5e8d4;strokeColor=#82b366;" vertex="1" parent="1">
          <mxGeometry x="325" y="200" width="120" height="60" as="geometry" />
        </mxCell>
        <mxCell id="sz_v7gkkLkbEUOMnv0yc-4" style="edgeStyle=orthogonalEdgeStyle;rounded=0;orthogonalLoop=1;jettySize=auto;html=1;exitX=0;exitY=0.5;exitDx=0;exitDy=0;entryX=1;entryY=0.5;entryDx=0;entryDy=0;fontSize=16;" edge="1" parent="1" source="sz_v7gkkLkbEUOMnv0yc-2" target="sz_v7gkkLkbEUOMnv0yc-1">
          <mxGeometry relative="1" as="geometry" />
        </mxCell>
        <mxCell id="sz_v7gkkLkbEUOMnv0yc-2" value="存储引擎层" style="rounded=0;whiteSpace=wrap;html=1;fontSize=16;fillColor=#fff2cc;strokeColor=#d6b656;" vertex="1" parent="1">
          <mxGeometry x="600" y="200" width="120" height="60" as="geometry" />
        </mxCell>
        <mxCell id="sz_v7gkkLkbEUOMnv0yc-3" value="客户端" style="rounded=0;whiteSpace=wrap;html=1;fontSize=16;fillColor=#f5f5f5;strokeColor=#666666;fontColor=#333333;" vertex="1" parent="1">
          <mxGeometry x="50" y="200" width="120" height="60" as="geometry" />
        </mxCell>
        <mxCell id="sz_v7gkkLkbEUOMnv0yc-8" value="Rows_examined" style="text;html=1;align=center;verticalAlign=middle;resizable=0;points=[];autosize=1;fontSize=16;fontColor=#FF0000;fontStyle=1" vertex="1" parent="1">
          <mxGeometry x="455" y="210" width="140" height="20" as="geometry" />
        </mxCell>
        <mxCell id="sz_v7gkkLkbEUOMnv0yc-9" value="Rows_sent" style="text;html=1;align=center;verticalAlign=middle;resizable=0;points=[];autosize=1;fontSize=16;fontColor=#FF0000;fontStyle=1" vertex="1" parent="1">
          <mxGeometry x="190" y="210" width="100" height="20" as="geometry" />
        </mxCell>
        <mxCell id="sz_v7gkkLkbEUOMnv0yc-13" value="&lt;font color=&quot;#000000&quot;&gt;MySQL&lt;/font&gt;" style="text;html=1;align=center;verticalAlign=middle;resizable=0;points=[];autosize=1;fontSize=16;fontColor=#FF0000;" vertex="1" parent="1">
          <mxGeometry x="485" y="170" width="70" height="20" as="geometry" />
        </mxCell>
      </root>
    </mxGraphModel>
  </diagram>
</mxfile>
